<svg xmlns="http://www.w3.org/2000/svg" viewBox="0 0 1200 480" width="1200" height="480" role="img" aria-labelledby="title desc" font-family="-apple-system, BlinkMacSystemFont, 'Segoe UI', Helvetica, Arial, sans-serif">
<title id="title">Profit at $1,000 per pick, before fees</title>
<desc id="desc">Cumulative profit before fees at 1,000 USD per pick from Jun 23, 2026 to Oct 10, 2026: +22,115.33 USD. 441 decided picks since Jun 23, 2026. 280W 161L, 63.5% hit rate, +5.0% ROI on 441,000 USD staked.</desc>
<rect width="1200" height="480" rx="6" fill="#0b0b0b"/>
<text x="32" y="52" fill="#ffffff" font-size="28" font-weight="600">Profit at $1,000 per pick, before fees</text>
<text x="32" y="84" fill="#8f8f8f" font-size="17">441 decided picks since Jun 23, 2026. 280W 161L, 63.5% hit rate, +5.0% ROI on 441,000 USD staked.</text>
<line x1="92" y1="420.0" x2="980" y2="420.0" stroke="#ffffff" stroke-opacity="0.22" stroke-width="1"/>
<text x="80" y="425.0" fill="#8f8f8f" font-size="15" text-anchor="end">0</text>
<line x1="92" y1="343.0" x2="980" y2="343.0" stroke="#ffffff" stroke-opacity="0.06" stroke-width="1"/>
<text x="80" y="348.0" fill="#8f8f8f" font-size="15" text-anchor="end">10,000</text>
<line x1="92" y1="266.0" x2="980" y2="266.0" stroke="#ffffff" stroke-opacity="0.06" stroke-width="1"/>
<text x="80" y="271.0" fill="#8f8f8f" font-size="15" text-anchor="end">20,000</text>
<line x1="92" y1="189.0" x2="980" y2="189.0" stroke="#ffffff" stroke-opacity="0.06" stroke-width="1"/>
<text x="80" y="194.0" fill="#8f8f8f" font-size="15" text-anchor="end">30,000</text>
<line x1="92" y1="112.0" x2="980" y2="112.0" stroke="#ffffff" stroke-opacity="0.06" stroke-width="1"/>
<text x="80" y="117.0" fill="#8f8f8f" font-size="15" text-anchor="end">40,000</text>
<line x1="156.6" y1="420" x2="156.6" y2="426" stroke="#ffffff" stroke-opacity="0.22" stroke-width="1"/>
<text x="156.6" y="446" fill="#8f8f8f" font-size="15" text-anchor="middle">Jul</text>
<line x1="406.8" y1="420" x2="406.8" y2="426" stroke="#ffffff" stroke-opacity="0.22" stroke-width="1"/>
<text x="406.8" y="446" fill="#8f8f8f" font-size="15" text-anchor="middle">Aug</text>
<line x1="657.1" y1="420" x2="657.1" y2="426" stroke="#ffffff" stroke-opacity="0.22" stroke-width="1"/>
<text x="657.1" y="446" fill="#8f8f8f" font-size="15" text-anchor="middle">Sep</text>
<line x1="899.3" y1="420" x2="899.3" y2="426" stroke="#ffffff" stroke-opacity="0.22" stroke-width="1"/>
<text x="899.3" y="446" fill="#8f8f8f" font-size="15" text-anchor="middle">Oct</text>
<defs>
<clipPath id="above"><rect x="0" y="0" width="1200" height="420.0"/></clipPath>
<clipPath id="below"><rect x="0" y="420.0" width="1200" height="60.0"/></clipPath>
</defs>
<path d="M92.0,420.0 L96.0,418.7 L104.1,411.1 L112.2,410.2 L120.3,400.6 L136.4,408.3 L144.5,398.3 L152.5,391.1 L160.6,390.5 L168.7,383.5 L176.8,379.9 L184.8,376.9 L192.9,372.0 L201.0,368.2 L209.1,362.7 L217.1,370.4 L225.2,370.1 L233.3,367.5 L241.3,375.2 L249.4,373.5 L257.5,381.2 L265.6,388.9 L273.6,396.6 L281.7,396.3 L289.8,404.0 L297.9,398.7 L305.9,391.5 L314.0,387.6 L322.1,380.9 L330.1,376.8 L338.2,368.7 L346.3,376.4 L354.4,384.1 L362.4,377.4 L370.5,385.1 L378.6,392.8 L386.7,383.2 L394.7,390.9 L402.8,386.2 L410.9,377.0 L418.9,384.7 L427.0,379.9 L435.1,377.3 L443.2,369.4 L451.2,377.1 L459.3,371.4 L467.4,379.1 L475.5,373.4 L483.5,369.0 L491.6,376.7 L499.7,384.4 L507.7,382.4 L515.8,390.1 L520.9,386.0 L522.9,378.5 L524.9,374.2 L526.9,367.0 L528.7,374.7 L530.3,374.2 L532.0,381.9 L533.6,374.1 L535.2,368.6 L537.3,363.4 L540.0,355.8 L542.7,341.8 L544.9,331.8 L546.5,339.5 L548.1,338.7 L549.7,334.5 L551.3,322.2 L553.0,317.9 L554.6,314.2 L556.2,321.9 L557.8,316.9 L559.4,315.8 L561.0,308.3 L562.6,316.0 L564.3,314.2 L565.9,308.7 L567.5,302.8 L569.1,310.5 L570.7,306.3 L572.3,300.1 L573.9,297.6 L575.6,305.3 L577.4,302.1 L579.4,300.4 L581.4,308.1 L583.4,300.0 L585.2,307.7 L586.9,304.7 L588.5,301.2 L590.1,308.9 L591.7,299.7 L593.3,294.4 L594.9,287.8 L596.5,295.5 L598.2,293.9 L599.8,301.6 L601.4,300.4 L603.0,299.5 L604.6,296.5 L606.2,304.2 L607.8,303.3 L609.5,301.6 L611.1,298.8 L612.7,296.8 L614.3,288.7 L615.9,296.4 L617.5,290.4 L619.1,282.6 L620.8,274.7 L622.4,274.1 L624.0,273.1 L625.6,271.1 L627.2,269.9 L628.8,267.5 L630.5,275.2 L632.1,269.6 L633.5,277.3 L634.9,285.0 L636.2,282.7 L637.6,290.4 L638.9,284.0 L640.3,291.7 L641.6,299.4 L643.0,307.1 L644.3,314.8 L645.7,303.5 L647.0,293.9 L648.3,286.0 L649.7,281.8 L651.0,280.6 L652.4,279.7 L653.7,278.0 L655.1,276.2 L656.4,273.9 L657.8,270.7 L659.1,278.4 L660.5,286.1 L661.8,293.8 L663.1,301.5 L664.5,301.1 L665.8,295.6 L667.2,303.3 L668.5,302.7 L669.9,296.8 L671.2,304.5 L672.6,304.1 L673.9,301.4 L675.3,309.1 L676.6,316.8 L677.9,310.6 L679.3,303.6 L680.6,311.3 L682.0,319.0 L683.3,315.0 L684.7,322.7 L686.0,330.4 L687.4,326.5 L688.7,334.2 L690.2,341.9 L691.8,349.6 L693.4,348.3 L695.0,347.7 L696.6,355.4 L698.1,350.9 L699.5,358.6 L700.8,353.6 L702.2,351.9 L703.5,349.4 L704.9,357.1 L706.3,364.8 L707.9,357.8 L709.6,354.4 L711.2,351.4 L712.8,359.1 L714.9,354.8 L717.6,362.5 L720.3,370.2 L722.3,364.5 L723.7,372.2 L725.0,379.9 L726.4,379.5 L727.7,378.1 L729.1,375.6 L730.4,369.1 L731.8,376.8 L733.1,376.1 L734.5,383.8 L735.8,377.1 L737.1,372.1 L738.5,369.2 L739.8,376.9 L741.2,374.9 L742.5,369.7 L743.9,367.8 L745.2,375.5 L746.6,383.2 L747.9,374.3 L749.3,372.0 L750.6,366.3 L751.9,361.7 L753.3,357.0 L754.6,364.7 L756.0,362.4 L757.3,370.1 L758.7,362.8 L760.0,360.8 L761.4,349.0 L762.8,347.3 L764.5,340.6 L766.1,348.3 L767.7,344.8 L769.3,352.5 L770.8,344.6 L772.1,352.3 L773.5,341.4 L774.8,340.6 L776.2,348.3 L777.5,339.8 L778.9,339.1 L780.2,346.8 L781.5,340.6 L782.9,339.9 L784.2,333.5 L785.6,331.4 L786.9,328.2 L788.3,335.9 L789.6,328.6 L791.0,327.4 L792.3,335.1 L793.7,333.6 L795.0,327.2 L796.3,322.3 L797.7,318.6 L799.0,313.6 L800.4,304.4 L801.7,298.9 L803.1,293.5 L804.4,287.8 L805.8,295.5 L807.1,293.1 L808.5,290.3 L809.8,288.3 L811.1,287.5 L812.5,295.2 L813.8,292.6 L815.2,285.6 L816.5,293.3 L817.9,285.5 L820.6,282.7 L824.6,275.7 L827.3,268.8 L828.6,262.3 L830.0,252.3 L831.3,260.0 L832.7,267.7 L834.0,267.1 L835.4,261.4 L836.7,269.1 L838.1,268.2 L839.4,275.9 L840.7,271.8 L842.1,265.3 L843.4,256.1 L844.8,251.9 L846.1,250.8 L847.5,258.5 L848.8,266.2 L850.2,256.6 L851.3,249.3 L852.2,248.4 L853.1,237.6 L854.0,245.3 L854.9,235.3 L855.8,226.4 L856.7,234.1 L857.6,241.8 L858.5,233.3 L859.3,241.0 L860.1,248.7 L860.9,246.3 L861.7,242.4 L862.5,233.9 L863.3,229.1 L864.2,225.9 L865.0,225.4 L865.8,224.4 L866.6,232.1 L867.4,231.3 L868.2,227.7 L869.0,224.5 L869.8,223.0 L870.6,214.8 L871.4,212.0 L872.2,219.7 L873.0,227.4 L873.8,222.2 L874.7,214.0 L875.7,221.7 L877.1,218.6 L878.4,216.0 L879.8,223.7 L881.1,231.4 L882.5,239.1 L883.5,235.2 L884.3,242.9 L885.1,236.7 L886.0,244.4 L886.8,241.4 L887.6,249.1 L888.4,236.2 L889.2,229.3 L890.0,218.4 L890.8,199.1 L893.2,206.8 L897.3,203.4 L899.7,211.1 L900.5,205.2 L901.3,212.9 L902.1,204.7 L902.9,188.7 L903.7,184.1 L904.5,177.4 L905.3,175.3 L906.1,169.6 L906.9,177.3 L907.7,185.0 L908.6,181.1 L909.4,177.1 L910.2,174.3 L911.0,182.0 L911.8,173.5 L912.6,166.5 L913.4,174.2 L914.2,181.9 L915.0,172.3 L915.8,180.0 L916.4,177.5 L917.1,185.2 L917.8,192.9 L918.4,200.6 L919.1,208.3 L919.8,216.0 L920.5,223.7 L921.1,217.3 L921.8,225.0 L922.5,232.7 L923.2,240.4 L923.8,248.1 L924.4,245.5 L924.9,242.5 L925.5,250.2 L926.1,257.9 L926.7,254.9 L927.2,262.6 L927.8,245.0 L928.4,252.7 L929.0,250.1 L929.5,241.2 L930.1,248.9 L930.7,242.5 L931.3,250.2 L931.8,257.9 L932.4,265.6 L932.9,257.4 L933.4,253.0 L934.0,243.0 L934.5,238.6 L935.1,246.3 L935.6,254.0 L936.1,261.7 L936.7,257.8 L937.2,265.5 L937.8,262.3 L938.3,270.0 L938.8,264.5 L939.4,253.7 L939.9,249.6 L940.4,257.3 L941.0,265.0 L941.5,257.4 L942.1,265.1 L942.6,272.8 L943.1,280.5 L943.7,273.0 L944.2,269.8 L944.7,277.5 L945.3,272.9 L945.8,264.3 L946.4,261.8 L946.9,269.5 L947.4,277.2 L948.0,274.2 L948.6,271.5 L949.3,268.5 L949.9,263.9 L950.5,260.7 L951.1,251.9 L951.7,244.0 L952.4,251.7 L953.0,259.4 L953.6,253.0 L954.2,251.1 L954.9,258.8 L955.5,244.8 L956.1,242.0 L956.9,234.8 L957.6,229.8 L958.4,223.3 L959.1,221.0 L959.8,228.7 L960.6,226.4 L961.3,234.1 L962.0,228.4 L962.8,223.4 L963.5,231.1 L964.1,238.8 L964.7,246.5 L965.2,254.2 L965.7,261.9 L966.3,269.6 L966.8,264.1 L967.4,271.8 L967.9,268.8 L968.4,276.5 L969.0,264.7 L969.5,256.2 L970.0,263.9 L970.6,271.6 L971.1,261.2 L971.7,252.6 L972.4,244.1 L973.3,236.3 L974.2,244.0 L975.1,237.0 L976.0,233.3 L976.9,241.0 L977.8,248.7 L978.7,256.4 L979.6,249.7 L979.6,420.0 Z" fill="#42d68c" fill-opacity="0.1" clip-path="url(#above)"/>
<polyline points="92.0,420.0 96.0,418.7 104.1,411.1 112.2,410.2 120.3,400.6 136.4,408.3 144.5,398.3 152.5,391.1 160.6,390.5 168.7,383.5 176.8,379.9 184.8,376.9 192.9,372.0 201.0,368.2 209.1,362.7 217.1,370.4 225.2,370.1 233.3,367.5 241.3,375.2 249.4,373.5 257.5,381.2 265.6,388.9 273.6,396.6 281.7,396.3 289.8,404.0 297.9,398.7 305.9,391.5 314.0,387.6 322.1,380.9 330.1,376.8 338.2,368.7 346.3,376.4 354.4,384.1 362.4,377.4 370.5,385.1 378.6,392.8 386.7,383.2 394.7,390.9 402.8,386.2 410.9,377.0 418.9,384.7 427.0,379.9 435.1,377.3 443.2,369.4 451.2,377.1 459.3,371.4 467.4,379.1 475.5,373.4 483.5,369.0 491.6,376.7 499.7,384.4 507.7,382.4 515.8,390.1 520.9,386.0 522.9,378.5 524.9,374.2 526.9,367.0 528.7,374.7 530.3,374.2 532.0,381.9 533.6,374.1 535.2,368.6 537.3,363.4 540.0,355.8 542.7,341.8 544.9,331.8 546.5,339.5 548.1,338.7 549.7,334.5 551.3,322.2 553.0,317.9 554.6,314.2 556.2,321.9 557.8,316.9 559.4,315.8 561.0,308.3 562.6,316.0 564.3,314.2 565.9,308.7 567.5,302.8 569.1,310.5 570.7,306.3 572.3,300.1 573.9,297.6 575.6,305.3 577.4,302.1 579.4,300.4 581.4,308.1 583.4,300.0 585.2,307.7 586.9,304.7 588.5,301.2 590.1,308.9 591.7,299.7 593.3,294.4 594.9,287.8 596.5,295.5 598.2,293.9 599.8,301.6 601.4,300.4 603.0,299.5 604.6,296.5 606.2,304.2 607.8,303.3 609.5,301.6 611.1,298.8 612.7,296.8 614.3,288.7 615.9,296.4 617.5,290.4 619.1,282.6 620.8,274.7 622.4,274.1 624.0,273.1 625.6,271.1 627.2,269.9 628.8,267.5 630.5,275.2 632.1,269.6 633.5,277.3 634.9,285.0 636.2,282.7 637.6,290.4 638.9,284.0 640.3,291.7 641.6,299.4 643.0,307.1 644.3,314.8 645.7,303.5 647.0,293.9 648.3,286.0 649.7,281.8 651.0,280.6 652.4,279.7 653.7,278.0 655.1,276.2 656.4,273.9 657.8,270.7 659.1,278.4 660.5,286.1 661.8,293.8 663.1,301.5 664.5,301.1 665.8,295.6 667.2,303.3 668.5,302.7 669.9,296.8 671.2,304.5 672.6,304.1 673.9,301.4 675.3,309.1 676.6,316.8 677.9,310.6 679.3,303.6 680.6,311.3 682.0,319.0 683.3,315.0 684.7,322.7 686.0,330.4 687.4,326.5 688.7,334.2 690.2,341.9 691.8,349.6 693.4,348.3 695.0,347.7 696.6,355.4 698.1,350.9 699.5,358.6 700.8,353.6 702.2,351.9 703.5,349.4 704.9,357.1 706.3,364.8 707.9,357.8 709.6,354.4 711.2,351.4 712.8,359.1 714.9,354.8 717.6,362.5 720.3,370.2 722.3,364.5 723.7,372.2 725.0,379.9 726.4,379.5 727.7,378.1 729.1,375.6 730.4,369.1 731.8,376.8 733.1,376.1 734.5,383.8 735.8,377.1 737.1,372.1 738.5,369.2 739.8,376.9 741.2,374.9 742.5,369.7 743.9,367.8 745.2,375.5 746.6,383.2 747.9,374.3 749.3,372.0 750.6,366.3 751.9,361.7 753.3,357.0 754.6,364.7 756.0,362.4 757.3,370.1 758.7,362.8 760.0,360.8 761.4,349.0 762.8,347.3 764.5,340.6 766.1,348.3 767.7,344.8 769.3,352.5 770.8,344.6 772.1,352.3 773.5,341.4 774.8,340.6 776.2,348.3 777.5,339.8 778.9,339.1 780.2,346.8 781.5,340.6 782.9,339.9 784.2,333.5 785.6,331.4 786.9,328.2 788.3,335.9 789.6,328.6 791.0,327.4 792.3,335.1 793.7,333.6 795.0,327.2 796.3,322.3 797.7,318.6 799.0,313.6 800.4,304.4 801.7,298.9 803.1,293.5 804.4,287.8 805.8,295.5 807.1,293.1 808.5,290.3 809.8,288.3 811.1,287.5 812.5,295.2 813.8,292.6 815.2,285.6 816.5,293.3 817.9,285.5 820.6,282.7 824.6,275.7 827.3,268.8 828.6,262.3 830.0,252.3 831.3,260.0 832.7,267.7 834.0,267.1 835.4,261.4 836.7,269.1 838.1,268.2 839.4,275.9 840.7,271.8 842.1,265.3 843.4,256.1 844.8,251.9 846.1,250.8 847.5,258.5 848.8,266.2 850.2,256.6 851.3,249.3 852.2,248.4 853.1,237.6 854.0,245.3 854.9,235.3 855.8,226.4 856.7,234.1 857.6,241.8 858.5,233.3 859.3,241.0 860.1,248.7 860.9,246.3 861.7,242.4 862.5,233.9 863.3,229.1 864.2,225.9 865.0,225.4 865.8,224.4 866.6,232.1 867.4,231.3 868.2,227.7 869.0,224.5 869.8,223.0 870.6,214.8 871.4,212.0 872.2,219.7 873.0,227.4 873.8,222.2 874.7,214.0 875.7,221.7 877.1,218.6 878.4,216.0 879.8,223.7 881.1,231.4 882.5,239.1 883.5,235.2 884.3,242.9 885.1,236.7 886.0,244.4 886.8,241.4 887.6,249.1 888.4,236.2 889.2,229.3 890.0,218.4 890.8,199.1 893.2,206.8 897.3,203.4 899.7,211.1 900.5,205.2 901.3,212.9 902.1,204.7 902.9,188.7 903.7,184.1 904.5,177.4 905.3,175.3 906.1,169.6 906.9,177.3 907.7,185.0 908.6,181.1 909.4,177.1 910.2,174.3 911.0,182.0 911.8,173.5 912.6,166.5 913.4,174.2 914.2,181.9 915.0,172.3 915.8,180.0 916.4,177.5 917.1,185.2 917.8,192.9 918.4,200.6 919.1,208.3 919.8,216.0 920.5,223.7 921.1,217.3 921.8,225.0 922.5,232.7 923.2,240.4 923.8,248.1 924.4,245.5 924.9,242.5 925.5,250.2 926.1,257.9 926.7,254.9 927.2,262.6 927.8,245.0 928.4,252.7 929.0,250.1 929.5,241.2 930.1,248.9 930.7,242.5 931.3,250.2 931.8,257.9 932.4,265.6 932.9,257.4 933.4,253.0 934.0,243.0 934.5,238.6 935.1,246.3 935.6,254.0 936.1,261.7 936.7,257.8 937.2,265.5 937.8,262.3 938.3,270.0 938.8,264.5 939.4,253.7 939.9,249.6 940.4,257.3 941.0,265.0 941.5,257.4 942.1,265.1 942.6,272.8 943.1,280.5 943.7,273.0 944.2,269.8 944.7,277.5 945.3,272.9 945.8,264.3 946.4,261.8 946.9,269.5 947.4,277.2 948.0,274.2 948.6,271.5 949.3,268.5 949.9,263.9 950.5,260.7 951.1,251.9 951.7,244.0 952.4,251.7 953.0,259.4 953.6,253.0 954.2,251.1 954.9,258.8 955.5,244.8 956.1,242.0 956.9,234.8 957.6,229.8 958.4,223.3 959.1,221.0 959.8,228.7 960.6,226.4 961.3,234.1 962.0,228.4 962.8,223.4 963.5,231.1 964.1,238.8 964.7,246.5 965.2,254.2 965.7,261.9 966.3,269.6 966.8,264.1 967.4,271.8 967.9,268.8 968.4,276.5 969.0,264.7 969.5,256.2 970.0,263.9 970.6,271.6 971.1,261.2 971.7,252.6 972.4,244.1 973.3,236.3 974.2,244.0 975.1,237.0 976.0,233.3 976.9,241.0 977.8,248.7 978.7,256.4 979.6,249.7" fill="none" stroke="#42d68c" stroke-width="2" stroke-linejoin="round" stroke-linecap="round" clip-path="url(#above)"/>
<path d="M92.0,420.0 L96.0,418.7 L104.1,411.1 L112.2,410.2 L120.3,400.6 L136.4,408.3 L144.5,398.3 L152.5,391.1 L160.6,390.5 L168.7,383.5 L176.8,379.9 L184.8,376.9 L192.9,372.0 L201.0,368.2 L209.1,362.7 L217.1,370.4 L225.2,370.1 L233.3,367.5 L241.3,375.2 L249.4,373.5 L257.5,381.2 L265.6,388.9 L273.6,396.6 L281.7,396.3 L289.8,404.0 L297.9,398.7 L305.9,391.5 L314.0,387.6 L322.1,380.9 L330.1,376.8 L338.2,368.7 L346.3,376.4 L354.4,384.1 L362.4,377.4 L370.5,385.1 L378.6,392.8 L386.7,383.2 L394.7,390.9 L402.8,386.2 L410.9,377.0 L418.9,384.7 L427.0,379.9 L435.1,377.3 L443.2,369.4 L451.2,377.1 L459.3,371.4 L467.4,379.1 L475.5,373.4 L483.5,369.0 L491.6,376.7 L499.7,384.4 L507.7,382.4 L515.8,390.1 L520.9,386.0 L522.9,378.5 L524.9,374.2 L526.9,367.0 L528.7,374.7 L530.3,374.2 L532.0,381.9 L533.6,374.1 L535.2,368.6 L537.3,363.4 L540.0,355.8 L542.7,341.8 L544.9,331.8 L546.5,339.5 L548.1,338.7 L549.7,334.5 L551.3,322.2 L553.0,317.9 L554.6,314.2 L556.2,321.9 L557.8,316.9 L559.4,315.8 L561.0,308.3 L562.6,316.0 L564.3,314.2 L565.9,308.7 L567.5,302.8 L569.1,310.5 L570.7,306.3 L572.3,300.1 L573.9,297.6 L575.6,305.3 L577.4,302.1 L579.4,300.4 L581.4,308.1 L583.4,300.0 L585.2,307.7 L586.9,304.7 L588.5,301.2 L590.1,308.9 L591.7,299.7 L593.3,294.4 L594.9,287.8 L596.5,295.5 L598.2,293.9 L599.8,301.6 L601.4,300.4 L603.0,299.5 L604.6,296.5 L606.2,304.2 L607.8,303.3 L609.5,301.6 L611.1,298.8 L612.7,296.8 L614.3,288.7 L615.9,296.4 L617.5,290.4 L619.1,282.6 L620.8,274.7 L622.4,274.1 L624.0,273.1 L625.6,271.1 L627.2,269.9 L628.8,267.5 L630.5,275.2 L632.1,269.6 L633.5,277.3 L634.9,285.0 L636.2,282.7 L637.6,290.4 L638.9,284.0 L640.3,291.7 L641.6,299.4 L643.0,307.1 L644.3,314.8 L645.7,303.5 L647.0,293.9 L648.3,286.0 L649.7,281.8 L651.0,280.6 L652.4,279.7 L653.7,278.0 L655.1,276.2 L656.4,273.9 L657.8,270.7 L659.1,278.4 L660.5,286.1 L661.8,293.8 L663.1,301.5 L664.5,301.1 L665.8,295.6 L667.2,303.3 L668.5,302.7 L669.9,296.8 L671.2,304.5 L672.6,304.1 L673.9,301.4 L675.3,309.1 L676.6,316.8 L677.9,310.6 L679.3,303.6 L680.6,311.3 L682.0,319.0 L683.3,315.0 L684.7,322.7 L686.0,330.4 L687.4,326.5 L688.7,334.2 L690.2,341.9 L691.8,349.6 L693.4,348.3 L695.0,347.7 L696.6,355.4 L698.1,350.9 L699.5,358.6 L700.8,353.6 L702.2,351.9 L703.5,349.4 L704.9,357.1 L706.3,364.8 L707.9,357.8 L709.6,354.4 L711.2,351.4 L712.8,359.1 L714.9,354.8 L717.6,362.5 L720.3,370.2 L722.3,364.5 L723.7,372.2 L725.0,379.9 L726.4,379.5 L727.7,378.1 L729.1,375.6 L730.4,369.1 L731.8,376.8 L733.1,376.1 L734.5,383.8 L735.8,377.1 L737.1,372.1 L738.5,369.2 L739.8,376.9 L741.2,374.9 L742.5,369.7 L743.9,367.8 L745.2,375.5 L746.6,383.2 L747.9,374.3 L749.3,372.0 L750.6,366.3 L751.9,361.7 L753.3,357.0 L754.6,364.7 L756.0,362.4 L757.3,370.1 L758.7,362.8 L760.0,360.8 L761.4,349.0 L762.8,347.3 L764.5,340.6 L766.1,348.3 L767.7,344.8 L769.3,352.5 L770.8,344.6 L772.1,352.3 L773.5,341.4 L774.8,340.6 L776.2,348.3 L777.5,339.8 L778.9,339.1 L780.2,346.8 L781.5,340.6 L782.9,339.9 L784.2,333.5 L785.6,331.4 L786.9,328.2 L788.3,335.9 L789.6,328.6 L791.0,327.4 L792.3,335.1 L793.7,333.6 L795.0,327.2 L796.3,322.3 L797.7,318.6 L799.0,313.6 L800.4,304.4 L801.7,298.9 L803.1,293.5 L804.4,287.8 L805.8,295.5 L807.1,293.1 L808.5,290.3 L809.8,288.3 L811.1,287.5 L812.5,295.2 L813.8,292.6 L815.2,285.6 L816.5,293.3 L817.9,285.5 L820.6,282.7 L824.6,275.7 L827.3,268.8 L828.6,262.3 L830.0,252.3 L831.3,260.0 L832.7,267.7 L834.0,267.1 L835.4,261.4 L836.7,269.1 L838.1,268.2 L839.4,275.9 L840.7,271.8 L842.1,265.3 L843.4,256.1 L844.8,251.9 L846.1,250.8 L847.5,258.5 L848.8,266.2 L850.2,256.6 L851.3,249.3 L852.2,248.4 L853.1,237.6 L854.0,245.3 L854.9,235.3 L855.8,226.4 L856.7,234.1 L857.6,241.8 L858.5,233.3 L859.3,241.0 L860.1,248.7 L860.9,246.3 L861.7,242.4 L862.5,233.9 L863.3,229.1 L864.2,225.9 L865.0,225.4 L865.8,224.4 L866.6,232.1 L867.4,231.3 L868.2,227.7 L869.0,224.5 L869.8,223.0 L870.6,214.8 L871.4,212.0 L872.2,219.7 L873.0,227.4 L873.8,222.2 L874.7,214.0 L875.7,221.7 L877.1,218.6 L878.4,216.0 L879.8,223.7 L881.1,231.4 L882.5,239.1 L883.5,235.2 L884.3,242.9 L885.1,236.7 L886.0,244.4 L886.8,241.4 L887.6,249.1 L888.4,236.2 L889.2,229.3 L890.0,218.4 L890.8,199.1 L893.2,206.8 L897.3,203.4 L899.7,211.1 L900.5,205.2 L901.3,212.9 L902.1,204.7 L902.9,188.7 L903.7,184.1 L904.5,177.4 L905.3,175.3 L906.1,169.6 L906.9,177.3 L907.7,185.0 L908.6,181.1 L909.4,177.1 L910.2,174.3 L911.0,182.0 L911.8,173.5 L912.6,166.5 L913.4,174.2 L914.2,181.9 L915.0,172.3 L915.8,180.0 L916.4,177.5 L917.1,185.2 L917.8,192.9 L918.4,200.6 L919.1,208.3 L919.8,216.0 L920.5,223.7 L921.1,217.3 L921.8,225.0 L922.5,232.7 L923.2,240.4 L923.8,248.1 L924.4,245.5 L924.9,242.5 L925.5,250.2 L926.1,257.9 L926.7,254.9 L927.2,262.6 L927.8,245.0 L928.4,252.7 L929.0,250.1 L929.5,241.2 L930.1,248.9 L930.7,242.5 L931.3,250.2 L931.8,257.9 L932.4,265.6 L932.9,257.4 L933.4,253.0 L934.0,243.0 L934.5,238.6 L935.1,246.3 L935.6,254.0 L936.1,261.7 L936.7,257.8 L937.2,265.5 L937.8,262.3 L938.3,270.0 L938.8,264.5 L939.4,253.7 L939.9,249.6 L940.4,257.3 L941.0,265.0 L941.5,257.4 L942.1,265.1 L942.6,272.8 L943.1,280.5 L943.7,273.0 L944.2,269.8 L944.7,277.5 L945.3,272.9 L945.8,264.3 L946.4,261.8 L946.9,269.5 L947.4,277.2 L948.0,274.2 L948.6,271.5 L949.3,268.5 L949.9,263.9 L950.5,260.7 L951.1,251.9 L951.7,244.0 L952.4,251.7 L953.0,259.4 L953.6,253.0 L954.2,251.1 L954.9,258.8 L955.5,244.8 L956.1,242.0 L956.9,234.8 L957.6,229.8 L958.4,223.3 L959.1,221.0 L959.8,228.7 L960.6,226.4 L961.3,234.1 L962.0,228.4 L962.8,223.4 L963.5,231.1 L964.1,238.8 L964.7,246.5 L965.2,254.2 L965.7,261.9 L966.3,269.6 L966.8,264.1 L967.4,271.8 L967.9,268.8 L968.4,276.5 L969.0,264.7 L969.5,256.2 L970.0,263.9 L970.6,271.6 L971.1,261.2 L971.7,252.6 L972.4,244.1 L973.3,236.3 L974.2,244.0 L975.1,237.0 L976.0,233.3 L976.9,241.0 L977.8,248.7 L978.7,256.4 L979.6,249.7 L979.6,420.0 Z" fill="#ff6467" fill-opacity="0.1" clip-path="url(#below)"/>
<polyline points="92.0,420.0 96.0,418.7 104.1,411.1 112.2,410.2 120.3,400.6 136.4,408.3 144.5,398.3 152.5,391.1 160.6,390.5 168.7,383.5 176.8,379.9 184.8,376.9 192.9,372.0 201.0,368.2 209.1,362.7 217.1,370.4 225.2,370.1 233.3,367.5 241.3,375.2 249.4,373.5 257.5,381.2 265.6,388.9 273.6,396.6 281.7,396.3 289.8,404.0 297.9,398.7 305.9,391.5 314.0,387.6 322.1,380.9 330.1,376.8 338.2,368.7 346.3,376.4 354.4,384.1 362.4,377.4 370.5,385.1 378.6,392.8 386.7,383.2 394.7,390.9 402.8,386.2 410.9,377.0 418.9,384.7 427.0,379.9 435.1,377.3 443.2,369.4 451.2,377.1 459.3,371.4 467.4,379.1 475.5,373.4 483.5,369.0 491.6,376.7 499.7,384.4 507.7,382.4 515.8,390.1 520.9,386.0 522.9,378.5 524.9,374.2 526.9,367.0 528.7,374.7 530.3,374.2 532.0,381.9 533.6,374.1 535.2,368.6 537.3,363.4 540.0,355.8 542.7,341.8 544.9,331.8 546.5,339.5 548.1,338.7 549.7,334.5 551.3,322.2 553.0,317.9 554.6,314.2 556.2,321.9 557.8,316.9 559.4,315.8 561.0,308.3 562.6,316.0 564.3,314.2 565.9,308.7 567.5,302.8 569.1,310.5 570.7,306.3 572.3,300.1 573.9,297.6 575.6,305.3 577.4,302.1 579.4,300.4 581.4,308.1 583.4,300.0 585.2,307.7 586.9,304.7 588.5,301.2 590.1,308.9 591.7,299.7 593.3,294.4 594.9,287.8 596.5,295.5 598.2,293.9 599.8,301.6 601.4,300.4 603.0,299.5 604.6,296.5 606.2,304.2 607.8,303.3 609.5,301.6 611.1,298.8 612.7,296.8 614.3,288.7 615.9,296.4 617.5,290.4 619.1,282.6 620.8,274.7 622.4,274.1 624.0,273.1 625.6,271.1 627.2,269.9 628.8,267.5 630.5,275.2 632.1,269.6 633.5,277.3 634.9,285.0 636.2,282.7 637.6,290.4 638.9,284.0 640.3,291.7 641.6,299.4 643.0,307.1 644.3,314.8 645.7,303.5 647.0,293.9 648.3,286.0 649.7,281.8 651.0,280.6 652.4,279.7 653.7,278.0 655.1,276.2 656.4,273.9 657.8,270.7 659.1,278.4 660.5,286.1 661.8,293.8 663.1,301.5 664.5,301.1 665.8,295.6 667.2,303.3 668.5,302.7 669.9,296.8 671.2,304.5 672.6,304.1 673.9,301.4 675.3,309.1 676.6,316.8 677.9,310.6 679.3,303.6 680.6,311.3 682.0,319.0 683.3,315.0 684.7,322.7 686.0,330.4 687.4,326.5 688.7,334.2 690.2,341.9 691.8,349.6 693.4,348.3 695.0,347.7 696.6,355.4 698.1,350.9 699.5,358.6 700.8,353.6 702.2,351.9 703.5,349.4 704.9,357.1 706.3,364.8 707.9,357.8 709.6,354.4 711.2,351.4 712.8,359.1 714.9,354.8 717.6,362.5 720.3,370.2 722.3,364.5 723.7,372.2 725.0,379.9 726.4,379.5 727.7,378.1 729.1,375.6 730.4,369.1 731.8,376.8 733.1,376.1 734.5,383.8 735.8,377.1 737.1,372.1 738.5,369.2 739.8,376.9 741.2,374.9 742.5,369.7 743.9,367.8 745.2,375.5 746.6,383.2 747.9,374.3 749.3,372.0 750.6,366.3 751.9,361.7 753.3,357.0 754.6,364.7 756.0,362.4 757.3,370.1 758.7,362.8 760.0,360.8 761.4,349.0 762.8,347.3 764.5,340.6 766.1,348.3 767.7,344.8 769.3,352.5 770.8,344.6 772.1,352.3 773.5,341.4 774.8,340.6 776.2,348.3 777.5,339.8 778.9,339.1 780.2,346.8 781.5,340.6 782.9,339.9 784.2,333.5 785.6,331.4 786.9,328.2 788.3,335.9 789.6,328.6 791.0,327.4 792.3,335.1 793.7,333.6 795.0,327.2 796.3,322.3 797.7,318.6 799.0,313.6 800.4,304.4 801.7,298.9 803.1,293.5 804.4,287.8 805.8,295.5 807.1,293.1 808.5,290.3 809.8,288.3 811.1,287.5 812.5,295.2 813.8,292.6 815.2,285.6 816.5,293.3 817.9,285.5 820.6,282.7 824.6,275.7 827.3,268.8 828.6,262.3 830.0,252.3 831.3,260.0 832.7,267.7 834.0,267.1 835.4,261.4 836.7,269.1 838.1,268.2 839.4,275.9 840.7,271.8 842.1,265.3 843.4,256.1 844.8,251.9 846.1,250.8 847.5,258.5 848.8,266.2 850.2,256.6 851.3,249.3 852.2,248.4 853.1,237.6 854.0,245.3 854.9,235.3 855.8,226.4 856.7,234.1 857.6,241.8 858.5,233.3 859.3,241.0 860.1,248.7 860.9,246.3 861.7,242.4 862.5,233.9 863.3,229.1 864.2,225.9 865.0,225.4 865.8,224.4 866.6,232.1 867.4,231.3 868.2,227.7 869.0,224.5 869.8,223.0 870.6,214.8 871.4,212.0 872.2,219.7 873.0,227.4 873.8,222.2 874.7,214.0 875.7,221.7 877.1,218.6 878.4,216.0 879.8,223.7 881.1,231.4 882.5,239.1 883.5,235.2 884.3,242.9 885.1,236.7 886.0,244.4 886.8,241.4 887.6,249.1 888.4,236.2 889.2,229.3 890.0,218.4 890.8,199.1 893.2,206.8 897.3,203.4 899.7,211.1 900.5,205.2 901.3,212.9 902.1,204.7 902.9,188.7 903.7,184.1 904.5,177.4 905.3,175.3 906.1,169.6 906.9,177.3 907.7,185.0 908.6,181.1 909.4,177.1 910.2,174.3 911.0,182.0 911.8,173.5 912.6,166.5 913.4,174.2 914.2,181.9 915.0,172.3 915.8,180.0 916.4,177.5 917.1,185.2 917.8,192.9 918.4,200.6 919.1,208.3 919.8,216.0 920.5,223.7 921.1,217.3 921.8,225.0 922.5,232.7 923.2,240.4 923.8,248.1 924.4,245.5 924.9,242.5 925.5,250.2 926.1,257.9 926.7,254.9 927.2,262.6 927.8,245.0 928.4,252.7 929.0,250.1 929.5,241.2 930.1,248.9 930.7,242.5 931.3,250.2 931.8,257.9 932.4,265.6 932.9,257.4 933.4,253.0 934.0,243.0 934.5,238.6 935.1,246.3 935.6,254.0 936.1,261.7 936.7,257.8 937.2,265.5 937.8,262.3 938.3,270.0 938.8,264.5 939.4,253.7 939.9,249.6 940.4,257.3 941.0,265.0 941.5,257.4 942.1,265.1 942.6,272.8 943.1,280.5 943.7,273.0 944.2,269.8 944.7,277.5 945.3,272.9 945.8,264.3 946.4,261.8 946.9,269.5 947.4,277.2 948.0,274.2 948.6,271.5 949.3,268.5 949.9,263.9 950.5,260.7 951.1,251.9 951.7,244.0 952.4,251.7 953.0,259.4 953.6,253.0 954.2,251.1 954.9,258.8 955.5,244.8 956.1,242.0 956.9,234.8 957.6,229.8 958.4,223.3 959.1,221.0 959.8,228.7 960.6,226.4 961.3,234.1 962.0,228.4 962.8,223.4 963.5,231.1 964.1,238.8 964.7,246.5 965.2,254.2 965.7,261.9 966.3,269.6 966.8,264.1 967.4,271.8 967.9,268.8 968.4,276.5 969.0,264.7 969.5,256.2 970.0,263.9 970.6,271.6 971.1,261.2 971.7,252.6 972.4,244.1 973.3,236.3 974.2,244.0 975.1,237.0 976.0,233.3 976.9,241.0 977.8,248.7 978.7,256.4 979.6,249.7" fill="none" stroke="#ff6467" stroke-width="2" stroke-linejoin="round" stroke-linecap="round" clip-path="url(#below)"/>
<line x1="820.6" y1="112" x2="820.6" y2="420" stroke="#ffffff" stroke-opacity="0.22" stroke-width="1" stroke-dasharray="2 4"/>
<text x="812.6" y="128" fill="#8f8f8f" font-size="14" text-anchor="end">sealed before kickoff from here</text>
<circle cx="979.6" cy="249.7" r="6" fill="#42d68c" stroke="#0b0b0b" stroke-width="2"/>
<text x="993.6" y="256.7" fill="#ffffff" font-size="20" font-weight="600">+22,115.33 USD</text>
<text x="1168" y="460" fill="#8f8f8f" font-size="14" text-anchor="end">0xinsider.com/pick-of-the-day</text>
</svg>
